<svg xmlns="http://www.w3.org/2000/svg" width="1600" height="900" viewBox="0 0 1600 900">
<defs><marker id="arrow" markerWidth="10" markerHeight="10" refX="8" refY="5" orient="auto-start-reverse"><path d="M0,0 L10,5 L0,10 z" fill="#2563EB"/></marker></defs>
<rect x="0" y="0" width="1600" height="900" rx="0" fill="#F8FAFC" stroke="none" stroke-width="2"/>
<text x="90" y="86" font-family="Noto Sans, Arial, sans-serif" font-size="21" font-weight="700" fill="#0F766E" text-anchor="start">L10   /   THƯ VIỆN BỐ CỤC AIA</text>
<text x="90" y="150" font-family="Noto Sans, Arial, sans-serif" font-size="43" font-weight="800" fill="#0A192F" text-anchor="start">Đúc kết dạng lưới mô-đun</text>
<line x1="90" y1="184" x2="1510" y2="184" stroke="#CBD5E1" stroke-width="2"/>
<rect x="115" y="250" width="780" height="445" rx="20" fill="white" stroke="#2563EB" stroke-width="2"/>
<text x="505.0" y="308" font-family="Noto Sans, Arial, sans-serif" font-size="27" font-weight="700" fill="#2563EB" text-anchor="middle">Nguyên lý chính</text>
<rect x="141" y="344" width="691.6" height="9" rx="4" fill="#CBD5E1" stroke="none" stroke-width="2"/>
<rect x="141" y="368" width="604.24" height="9" rx="4" fill="#CBD5E1" stroke="none" stroke-width="2"/>
<rect x="141" y="392" width="516.88" height="9" rx="4" fill="#CBD5E1" stroke="none" stroke-width="2"/>
<rect x="930" y="250" width="545" height="185" rx="20" fill="white" stroke="#0F766E" stroke-width="2"/>
<text x="1202.5" y="308" font-family="Noto Sans, Arial, sans-serif" font-size="27" font-weight="700" fill="#0F766E" text-anchor="middle">Ý hỗ trợ 1</text>
<rect x="956" y="344" width="468.34999999999997" height="9" rx="4" fill="#CBD5E1" stroke="none" stroke-width="2"/>
<rect x="956" y="368" width="409.19" height="9" rx="4" fill="#CBD5E1" stroke="none" stroke-width="2"/>
<rect x="956" y="392" width="350.03" height="9" rx="4" fill="#CBD5E1" stroke="none" stroke-width="2"/>
<rect x="930" y="465" width="545" height="230" rx="20" fill="white" stroke="#0F766E" stroke-width="2"/>
<text x="1202.5" y="523" font-family="Noto Sans, Arial, sans-serif" font-size="27" font-weight="700" fill="#0F766E" text-anchor="middle">Ý hỗ trợ 2</text>
<rect x="956" y="559" width="468.34999999999997" height="9" rx="4" fill="#CBD5E1" stroke="none" stroke-width="2"/>
<rect x="956" y="583" width="409.19" height="9" rx="4" fill="#CBD5E1" stroke="none" stroke-width="2"/>
<rect x="956" y="607" width="350.03" height="9" rx="4" fill="#CBD5E1" stroke="none" stroke-width="2"/>
<line x1="90" y1="802" x2="1510" y2="802" stroke="#CBD5E1" stroke-width="2"/>
<text x="90" y="847" font-family="Noto Sans, Arial, sans-serif" font-size="21" font-weight="500" fill="#475569" text-anchor="start">Sơ đồ khung gốc • Không phải đối tượng SmartArt hoặc mẫu PPTX dựng sẵn</text>
<text x="1510" y="847" font-family="Noto Sans, Arial, sans-serif" font-size="22" font-weight="700" fill="#2563EB" text-anchor="end">L10</text>
</svg>