<svg xmlns="http://www.w3.org/2000/svg" width="1600" height="900" viewBox="0 0 1600 900">
<defs><marker id="arrow" markerWidth="10" markerHeight="10" refX="8" refY="5" orient="auto-start-reverse"><path d="M0,0 L10,5 L0,10 z" fill="#2563EB"/></marker></defs>
<rect x="0" y="0" width="1600" height="900" rx="0" fill="#F8FAFC" stroke="none" stroke-width="2"/>
<text x="90" y="86" font-family="Noto Sans, Arial, sans-serif" font-size="21" font-weight="700" fill="#0F766E" text-anchor="start">L16   /   THƯ VIỆN BỐ CỤC AIA</text>
<text x="90" y="150" font-family="Noto Sans, Arial, sans-serif" font-size="43" font-weight="800" fill="#0A192F" text-anchor="start">Thang trưởng thành</text>
<line x1="90" y1="184" x2="1510" y2="184" stroke="#CBD5E1" stroke-width="2"/>
<rect x="170" y="560" width="285" height="160" rx="12" fill="#EFF6FF" stroke="#2563EB" stroke-width="2"/>
<text x="312" y="615" font-family="Noto Sans, Arial, sans-serif" font-size="31" font-weight="700" fill="#2563EB" text-anchor="middle">Mức 1</text>
<rect x="210" y="648" width="185.25" height="9" rx="4" fill="#CBD5E1" stroke="none" stroke-width="2"/>
<rect x="210" y="672" width="161.85" height="9" rx="4" fill="#CBD5E1" stroke="none" stroke-width="2"/>
<rect x="485" y="475" width="285" height="245" rx="12" fill="#EFF6FF" stroke="#2563EB" stroke-width="2"/>
<text x="627" y="530" font-family="Noto Sans, Arial, sans-serif" font-size="31" font-weight="700" fill="#2563EB" text-anchor="middle">Mức 2</text>
<rect x="525" y="563" width="185.25" height="9" rx="4" fill="#CBD5E1" stroke="none" stroke-width="2"/>
<rect x="525" y="587" width="161.85" height="9" rx="4" fill="#CBD5E1" stroke="none" stroke-width="2"/>
<rect x="800" y="390" width="285" height="330" rx="12" fill="#EFF6FF" stroke="#2563EB" stroke-width="2"/>
<text x="942" y="445" font-family="Noto Sans, Arial, sans-serif" font-size="31" font-weight="700" fill="#2563EB" text-anchor="middle">Mức 3</text>
<rect x="840" y="478" width="185.25" height="9" rx="4" fill="#CBD5E1" stroke="none" stroke-width="2"/>
<rect x="840" y="502" width="161.85" height="9" rx="4" fill="#CBD5E1" stroke="none" stroke-width="2"/>
<rect x="1115" y="305" width="285" height="415" rx="12" fill="#EFF6FF" stroke="#2563EB" stroke-width="2"/>
<text x="1257" y="360" font-family="Noto Sans, Arial, sans-serif" font-size="31" font-weight="700" fill="#2563EB" text-anchor="middle">Mức 4</text>
<rect x="1155" y="393" width="185.25" height="9" rx="4" fill="#CBD5E1" stroke="none" stroke-width="2"/>
<rect x="1155" y="417" width="161.85" height="9" rx="4" fill="#CBD5E1" stroke="none" stroke-width="2"/>
<line x1="90" y1="802" x2="1510" y2="802" stroke="#CBD5E1" stroke-width="2"/>
<text x="90" y="847" font-family="Noto Sans, Arial, sans-serif" font-size="21" font-weight="500" fill="#475569" text-anchor="start">Sơ đồ khung gốc • Không phải đối tượng SmartArt hoặc mẫu PPTX dựng sẵn</text>
<text x="1510" y="847" font-family="Noto Sans, Arial, sans-serif" font-size="22" font-weight="700" fill="#2563EB" text-anchor="end">L16</text>
</svg>