<svg xmlns="http://www.w3.org/2000/svg" width="1600" height="900" viewBox="0 0 1600 900">
<defs><marker id="arrow" markerWidth="10" markerHeight="10" refX="8" refY="5" orient="auto-start-reverse"><path d="M0,0 L10,5 L0,10 z" fill="#2563EB"/></marker></defs>
<rect x="0" y="0" width="1600" height="900" rx="0" fill="#F8FAFC" stroke="none" stroke-width="2"/>
<text x="90" y="86" font-family="Noto Sans, Arial, sans-serif" font-size="21" font-weight="700" fill="#0F766E" text-anchor="start">L22   /   THƯ VIỆN BỐ CỤC AIA</text>
<text x="90" y="150" font-family="Noto Sans, Arial, sans-serif" font-size="43" font-weight="800" fill="#0A192F" text-anchor="start">Làn trách nhiệm</text>
<line x1="90" y1="184" x2="1510" y2="184" stroke="#CBD5E1" stroke-width="2"/>
<rect x="100" y="250" width="1400" height="135" rx="5" fill="white" stroke="#CBD5E1" stroke-width="2"/>
<text x="123" y="325" font-family="Noto Sans, Arial, sans-serif" font-size="26" font-weight="700" fill="#0F766E" text-anchor="start">Người dùng</text>
<rect x="100" y="400" width="1400" height="135" rx="5" fill="white" stroke="#CBD5E1" stroke-width="2"/>
<text x="123" y="475" font-family="Noto Sans, Arial, sans-serif" font-size="26" font-weight="700" fill="#0F766E" text-anchor="start">Tác nhân</text>
<rect x="100" y="550" width="1400" height="135" rx="5" fill="white" stroke="#CBD5E1" stroke-width="2"/>
<text x="123" y="625" font-family="Noto Sans, Arial, sans-serif" font-size="26" font-weight="700" fill="#0F766E" text-anchor="start">Hệ thống</text>
<rect x="370" y="275" width="270" height="85" rx="20" fill="white" stroke="#2563EB" stroke-width="2"/>
<text x="505.0" y="333" font-family="Noto Sans, Arial, sans-serif" font-size="27" font-weight="700" fill="#2563EB" text-anchor="middle">Giao việc</text>
<rect x="750" y="425" width="290" height="85" rx="20" fill="white" stroke="#2563EB" stroke-width="2"/>
<text x="895.0" y="483" font-family="Noto Sans, Arial, sans-serif" font-size="27" font-weight="700" fill="#2563EB" text-anchor="middle">Xử lý</text>
<rect x="1170" y="275" width="285" height="85" rx="20" fill="white" stroke="#0F766E" stroke-width="2"/>
<text x="1312.5" y="333" font-family="Noto Sans, Arial, sans-serif" font-size="27" font-weight="700" fill="#0F766E" text-anchor="middle">Phê duyệt</text>
<rect x="1160" y="575" width="300" height="85" rx="20" fill="white" stroke="#0F766E" stroke-width="2"/>
<text x="1310.0" y="633" font-family="Noto Sans, Arial, sans-serif" font-size="27" font-weight="700" fill="#0F766E" text-anchor="middle">Lưu kết quả</text>
<path d="M650,320 H690 V468 H737" fill="none" stroke="#2563EB" stroke-width="4" marker-end="url(#arrow)"/>
<path d="M1050,468 H1110 V320 H1155" fill="none" stroke="#2563EB" stroke-width="4" marker-end="url(#arrow)"/>
<path d="M1320,370 V562" fill="none" stroke="#2563EB" stroke-width="4" marker-end="url(#arrow)"/>
<line x1="90" y1="802" x2="1510" y2="802" stroke="#CBD5E1" stroke-width="2"/>
<text x="90" y="847" font-family="Noto Sans, Arial, sans-serif" font-size="21" font-weight="500" fill="#475569" text-anchor="start">Sơ đồ khung gốc • Không phải đối tượng SmartArt hoặc mẫu PPTX dựng sẵn</text>
<text x="1510" y="847" font-family="Noto Sans, Arial, sans-serif" font-size="22" font-weight="700" fill="#2563EB" text-anchor="end">L22</text>
</svg>